<svg id="Layer_1" data-name="Layer 1" xmlns="http://www.w3.org/2000/svg" xmlns:xlink="http://www.w3.org/1999/xlink" viewBox="0 0 367.81 119.82"><defs><style>.cls-1{fill:url(#linear-gradient);}.cls-2{fill:url(#linear-gradient-2);}.cls-3{fill:url(#linear-gradient-3);}.cls-4{fill:url(#linear-gradient-4);}.cls-5{fill:url(#linear-gradient-5);}.cls-6{fill:url(#linear-gradient-6);}.cls-7{fill:url(#linear-gradient-7);}.cls-8{fill:url(#linear-gradient-8);}.cls-9{fill:url(#linear-gradient-9);}.cls-10{fill:url(#linear-gradient-10);}.cls-11{fill:url(#linear-gradient-11);}.cls-12{fill:url(#linear-gradient-12);}.cls-13{fill:url(#linear-gradient-13);}.cls-14{fill:url(#linear-gradient-14);}.cls-15{fill:url(#linear-gradient-15);}.cls-16{fill:url(#linear-gradient-16);}.cls-17{fill:url(#linear-gradient-17);}.cls-18{fill:url(#linear-gradient-18);}.cls-19{fill:url(#linear-gradient-19);}.cls-20{fill:url(#linear-gradient-20);}.cls-21{fill:url(#linear-gradient-21);}</style><linearGradient id="linear-gradient" x1="151.96" y1="259.86" x2="402.82" y2="259.86" gradientUnits="userSpaceOnUse"><stop offset="0.01" stop-color="#27a8e0"/><stop offset="0.5" stop-color="#00aeef"/><stop offset="1" stop-color="#1c75bc"/></linearGradient><linearGradient id="linear-gradient-2" x1="93.86" y1="265.49" x2="270.65" y2="265.49" xlink:href="#linear-gradient"/><linearGradient id="linear-gradient-3" x1="181.38" y1="160.28" x2="206.34" y2="185.24" gradientUnits="userSpaceOnUse"><stop offset="0.01" stop-color="#27a8e0"/><stop offset="0.4" stop-color="#00aeef"/><stop offset="1" stop-color="#1c75bc"/></linearGradient><linearGradient id="linear-gradient-4" x1="214.47" y1="161.36" x2="234.1" y2="180.99" xlink:href="#linear-gradient-3"/><linearGradient id="linear-gradient-5" x1="242.68" y1="157.59" x2="264.08" y2="179" xlink:href="#linear-gradient-3"/><linearGradient id="linear-gradient-6" x1="266.31" y1="166.98" x2="286.58" y2="187.25" xlink:href="#linear-gradient-3"/><linearGradient id="linear-gradient-7" x1="289.58" y1="161.64" x2="311.92" y2="183.98" xlink:href="#linear-gradient-3"/><linearGradient id="linear-gradient-8" x1="64.62" y1="207.09" x2="81.98" y2="224.46" xlink:href="#linear-gradient-3"/><linearGradient id="linear-gradient-9" x1="87.4" y1="202.07" x2="114.24" y2="228.91" xlink:href="#linear-gradient-3"/><linearGradient id="linear-gradient-10" x1="122.34" y1="205.7" x2="141.97" y2="225.33" xlink:href="#linear-gradient-3"/><linearGradient id="linear-gradient-11" x1="147.58" y1="204.62" x2="172.55" y2="229.58" xlink:href="#linear-gradient-3"/><linearGradient id="linear-gradient-12" x1="175.06" y1="204.11" x2="197.41" y2="226.46" xlink:href="#linear-gradient-3"/><linearGradient id="linear-gradient-13" x1="196.18" y1="205.98" x2="218.52" y2="228.32" xlink:href="#linear-gradient-3"/><linearGradient id="linear-gradient-14" x1="219.13" y1="206.32" x2="237.47" y2="224.67" xlink:href="#linear-gradient-3"/><linearGradient id="linear-gradient-15" x1="238.36" y1="202.18" x2="263.76" y2="227.59" xlink:href="#linear-gradient-3"/><linearGradient id="linear-gradient-16" x1="267.37" y1="204.11" x2="289.72" y2="226.46" xlink:href="#linear-gradient-3"/><linearGradient id="linear-gradient-17" x1="302.23" y1="202.07" x2="329.07" y2="228.91" xlink:href="#linear-gradient-3"/><linearGradient id="linear-gradient-18" x1="337.16" y1="205.7" x2="356.79" y2="225.33" xlink:href="#linear-gradient-3"/><linearGradient id="linear-gradient-19" x1="364.67" y1="201.88" x2="385.98" y2="223.19" xlink:href="#linear-gradient-3"/><linearGradient id="linear-gradient-20" x1="388.16" y1="204.11" x2="410.51" y2="226.46" xlink:href="#linear-gradient-3"/><linearGradient id="linear-gradient-21" x1="409.28" y1="205.98" x2="431.62" y2="228.32" xlink:href="#linear-gradient-3"/></defs><path class="cls-1" d="M152,260.46c33.41,6.69,70.35-10.81,95.1-14,48.84-7.81,70.22,11.28,95.42,20.06,16.91,5.16,41.17,4.92,60.34-5-10,9.51-34.95,17-61.53,12.11-24.81-4.81-45.17-26.35-95.76-18.25C218.53,259.78,179.3,272,152,260.46Z" transform="translate(-64.44 -157.95)"/><path class="cls-2" d="M93.86,253.21c28.11,9.94,59.2,18.37,91.92,17.07,23.23-1,63.52-7.09,84.87-12-16.1,8.37-53.58,18-87.28,19.52C147.31,277.74,116.55,268.79,93.86,253.21Z" transform="translate(-64.44 -157.95)"/><path class="cls-3" d="M207.83,183.76l-.18.18-.69,0q-2.47-.09-3.09-.09c-.61,0-1.58,0-2.92.11a5.07,5.07,0,0,0-.68-1.45L195.79,175l-2-3.05a5,5,0,0,0-1.07-1.1l.2-.61.62,0a5.76,5.76,0,0,0,2.77-.56A4.84,4.84,0,0,0,198,168a5.62,5.62,0,0,0,.78-3q0-3.06-2.28-4.12a7.82,7.82,0,0,0-3.15-.5,10.85,10.85,0,0,0-1.74.14q-.18,1.77-.18,6v9.44a39.61,39.61,0,0,0,.24,5.59.79.79,0,0,0,.61.67c.18,0,.89.1,2.11.18l.18.18v1.21l-.16.18c-1.2-.08-3.06-.11-5.56-.11s-4.44,0-5.55.11l-.18-.17v-1.22l.18-.18c1.22-.08,1.93-.14,2.11-.18a.79.79,0,0,0,.61-.67,39.61,39.61,0,0,0,.24-5.59v-9.55a39.51,39.51,0,0,0-.24-5.59.79.79,0,0,0-.61-.67,18.9,18.9,0,0,0-2.11-.18l-.18-.18v-1.23l.18-.16c1.18.07,3,.11,5.55.11,1.47,0,2.66,0,3.58-.06,1.81-.07,3.17-.1,4.07-.1a14,14,0,0,1,4.59.55,4.27,4.27,0,0,1,2.63,2.57,6,6,0,0,1,.33,2.09q0,4.91-5.53,7c.61,1,1.24,2,1.92,3.07l2.78,4.28q2.45,3.78,3.26,4.31a2.12,2.12,0,0,0,1.16.27l.18.18Z" transform="translate(-64.44 -157.95)"/><path class="cls-4" d="M238,170.49q0,6.66-3.87,10.45t-10.31,3.68q-6.17,0-9.69-3.47t-3.51-9.66q0-8.69,6.62-12a16.39,16.39,0,0,1,7.41-1.52q6.3,0,9.8,3.31T238,170.49Zm-5.55.94a14.52,14.52,0,0,0-2.1-8.31,7,7,0,0,0-6.17-3.07c-3.57,0-5.94,1.6-7.1,4.82a15.8,15.8,0,0,0-.91,5.53q0,5.58,2.06,8.81a7.07,7.07,0,0,0,6.37,3.34q5.15,0,6.91-5.07A18.47,18.47,0,0,0,232.47,171.43Z" transform="translate(-64.44 -157.95)"/><path class="cls-5" d="M264.65,159.22q-2.85,3.87-6.24,9.51a19.84,19.84,0,0,0-2.11,4.06,6.48,6.48,0,0,0-.11,1.35v1.79q0,5.28.32,5.88a.67.67,0,0,0,.42.32,14.55,14.55,0,0,0,2.22.24l.18.18v1.21l-.18.18c-1.19-.08-3-.11-5.56-.11s-4.42,0-5.56.11l-.16-.17v-1.22l.18-.18a14.55,14.55,0,0,0,2.22-.24.67.67,0,0,0,.42-.32q.31-.6.32-5.88V173.8q0-.69-2.83-5.49a38.7,38.7,0,0,0-4.6-6.64,5,5,0,0,0-1.12-1,4.51,4.51,0,0,0-1.35-.12l-.2-.2v-1l.18-.2c2.93-.58,4.82-1,5.65-1.23a6.56,6.56,0,0,1,1.67,1.18q1.54,1.5,4.12,6.67l2.36,4.73q1.06-1.71,4.06-6.89l2-3.59c.22-.4.51-1,.89-1.64h2.63l.18.18Z" transform="translate(-64.44 -157.95)"/><path class="cls-6" d="M290.05,183.76l-.16.18c-2.67-.08-4.28-.11-4.84-.11-2.21,0-4.27,0-6.17.11l-.16-.18v-1.14l.18-.2,1.57-.09c.66,0,1-.27,1-.7a6.79,6.79,0,0,0-.5-1.7l-1.46-3.81c-1.66,0-3.36,0-5.09,0l-4.19,0-.79,2.2a14,14,0,0,0-.9,3.14c0,.46.28.73.84.82.32,0,.93.09,1.84.14l.18.18v1.16l-.18.18c-2.22-.08-3.65-.11-4.29-.11s-1.71,0-3.66.11l-.18-.17V182.6l.2-.18c1.23-.07,2-.32,2.28-.74s1.34-2.93,3.18-7.52l4.71-11.79,1.59-4.13h2.56l9.56,22.5c.38.86.71,1.34,1,1.45a5.44,5.44,0,0,0,1.72.21l.16.2Zm-11.44-9.71-3.86-9.46-3.7,9.46c1,0,2.27,0,3.85,0S277.66,174.09,278.61,174.05Z" transform="translate(-64.44 -157.95)"/><path class="cls-7" d="M312.55,177.8a39.56,39.56,0,0,0-.4,6l-.18.18-13.12-.11c-2.19,0-3.73,0-4.64.11l-.18-.18v-.51l.09-.22a6.39,6.39,0,0,0,1.45-1.06,9.62,9.62,0,0,0,.2-2.4l.05-4v-9.15a41.8,41.8,0,0,0-.23-5.59.8.8,0,0,0-.62-.67,18.61,18.61,0,0,0-2.11-.18l-.18-.18v-1.23l.18-.16c1.24.07,3.06.11,5.45.11s4.36,0,5.65-.11l.18.16v1.25l-.18.16a18.61,18.61,0,0,0-2.11.18.8.8,0,0,0-.62.67,41.8,41.8,0,0,0-.23,5.59v10.79c0,1.58,0,3.1.09,4.58h2.45a28.63,28.63,0,0,0,6.46-.41.65.65,0,0,0,.29-.2,3.29,3.29,0,0,0,.34-1.08l.44-2.24.18-.2h1.1Z" transform="translate(-64.44 -157.95)"/><path class="cls-8" d="M82.91,219.83a8.52,8.52,0,0,1-1.69,5.25,8.85,8.85,0,0,1-3.88,3,13.86,13.86,0,0,1-5.25.9,17.09,17.09,0,0,1-7.44-1.73l-.21-.4a26.85,26.85,0,0,0,.5-5.9l.18-.18h1.16l.16.18v.42a20.79,20.79,0,0,0,.22,2.67A5.11,5.11,0,0,0,69,226a8.1,8.1,0,0,0,3.65.87q3.57,0,4.94-2.49a5.42,5.42,0,0,0,.7-2.65,3.42,3.42,0,0,0-1.93-3.3,10.67,10.67,0,0,0-3.08-.82q-4.82-.74-6.33-1.85a6.11,6.11,0,0,1-2.3-5.25,7.53,7.53,0,0,1,2.49-5.91,10.8,10.8,0,0,1,7.33-2.3,14.82,14.82,0,0,1,6.82,1.35l.13.43a31,31,0,0,0-.53,5.16l-.2.18H79.54l-.18-.18a23.5,23.5,0,0,0-.18-2.81,4.33,4.33,0,0,0-2-1.45,8.18,8.18,0,0,0-3.09-.61,5.48,5.48,0,0,0-3.82,1.28A4,4,0,0,0,69,208.77a3.37,3.37,0,0,0,1.5,3A14.42,14.42,0,0,0,75.1,213l2.11.36a10.31,10.31,0,0,1,2,.53A5.39,5.39,0,0,1,81.92,216,6.91,6.91,0,0,1,82.91,219.83Z" transform="translate(-64.44 -157.95)"/><path class="cls-9" d="M115.06,228.1l-.18.18c-1.19-.07-3-.11-5.56-.11s-4.42,0-5.55.11l-.19-.17v-1.22l.2-.18c1.23-.08,1.93-.14,2.11-.18a.8.8,0,0,0,.62-.67,41.9,41.9,0,0,0,.23-5.59v-4.35c-.61-.06-2.56-.09-5.84-.09q-4.55,0-6,.09v4.35a40.18,40.18,0,0,0,.23,5.59.8.8,0,0,0,.61.67c.18,0,.89.1,2.12.18l.18.18v1.21l-.17.18c-1.2-.07-3-.11-5.55-.11s-4.44,0-5.56.11l-.18-.17v-1.22l.18-.18c1.23-.08,1.93-.14,2.11-.18a.79.79,0,0,0,.61-.67,39.61,39.61,0,0,0,.24-5.59v-9.55a39.51,39.51,0,0,0-.24-5.59.79.79,0,0,0-.61-.67,18.61,18.61,0,0,0-2.11-.18l-.18-.18v-1.23l.18-.16c1.15.07,3,.11,5.56.11s4.46,0,5.55-.11l.17.16v1.25l-.18.16a18.93,18.93,0,0,0-2.12.18.8.8,0,0,0-.61.67,40.08,40.08,0,0,0-.23,5.59v3c1.27.06,3,.09,5.26.09q5.28,0,6.57-.09v-3a41.8,41.8,0,0,0-.23-5.59.8.8,0,0,0-.62-.67,18.61,18.61,0,0,0-2.11-.18l-.2-.18v-1.23l.19-.16c1.16.07,3,.11,5.55.11s4.48,0,5.56-.11l.18.16v1.25l-.16.16a18.4,18.4,0,0,0-2.13.18.8.8,0,0,0-.62.67,41.8,41.8,0,0,0-.23,5.59v9.55a41.9,41.9,0,0,0,.23,5.59.8.8,0,0,0,.62.67c.18,0,.88.1,2.11.18l.18.18Z" transform="translate(-64.44 -157.95)"/><path class="cls-10" d="M145.89,214.84c0,4.43-1.29,7.92-3.88,10.44s-5.95,3.68-10.3,3.68c-4.12,0-7.34-1.15-9.69-3.47s-3.52-5.54-3.52-9.66q0-8.69,6.62-12a16.41,16.41,0,0,1,7.42-1.51q6.3,0,9.8,3.3T145.89,214.84Zm-5.56.93a14.51,14.51,0,0,0-2.1-8.3,7,7,0,0,0-6.16-3.08c-3.57,0-5.94,1.6-7.11,4.82a16,16,0,0,0-.9,5.53c0,3.72.68,6.66,2.06,8.81a7,7,0,0,0,6.36,3.34c3.43,0,5.74-1.69,6.91-5.07A18.16,18.16,0,0,0,140.33,215.77Z" transform="translate(-64.44 -157.95)"/><path class="cls-11" d="M174,228.1l-.18.18-.68,0q-2.47-.09-3.09-.09c-.61,0-1.59,0-2.92.11a5.18,5.18,0,0,0-.69-1.45L162,219.36l-2-3a5,5,0,0,0-1.06-1.11l.2-.61.61,0a5.8,5.8,0,0,0,2.78-.56,4.92,4.92,0,0,0,1.7-1.77,5.68,5.68,0,0,0,.77-3c0-2-.76-3.41-2.27-4.11a7.68,7.68,0,0,0-3.16-.51,10.73,10.73,0,0,0-1.73.14q-.18,1.77-.18,6v9.44a41.9,41.9,0,0,0,.23,5.59.8.8,0,0,0,.62.67c.18,0,.88.1,2.11.18l.18.18v1.21l-.16.18c-1.21-.07-3.06-.11-5.56-.11s-4.44,0-5.56.11l-.18-.17v-1.22l.18-.18c1.23-.08,1.93-.14,2.11-.18a.8.8,0,0,0,.62-.67,41.9,41.9,0,0,0,.23-5.59v-9.55a41.8,41.8,0,0,0-.23-5.59.8.8,0,0,0-.62-.67,18.61,18.61,0,0,0-2.11-.18l-.18-.18v-1.23l.18-.16c1.18.07,3,.11,5.56.11q2.2,0,3.57-.06c1.82-.07,3.18-.1,4.08-.1a13.56,13.56,0,0,1,4.58.56,4.3,4.3,0,0,1,2.64,2.56,6.25,6.25,0,0,1,.32,2.09q0,4.9-5.52,7c.6,1,1.24,2,1.91,3.06l2.78,4.28q2.46,3.78,3.27,4.31a2.08,2.08,0,0,0,1.15.27l.18.18Z" transform="translate(-64.44 -157.95)"/><path class="cls-12" d="M196.17,222.14a39.56,39.56,0,0,0-.4,6l-.18.18-13.12-.11c-2.19,0-3.73,0-4.64.11l-.18-.18v-.51l.09-.21a6.26,6.26,0,0,0,1.45-1.07,9.76,9.76,0,0,0,.2-2.4l.05-4v-9.15a41.8,41.8,0,0,0-.23-5.59.8.8,0,0,0-.62-.67,18.61,18.61,0,0,0-2.11-.18l-.18-.18v-1.23l.18-.16c1.22.07,3.09.11,5.63.11q3.39,0,12.9-.11l.2.15-.24,2c-.07.64-.12,1.18-.16,1.62l-.12,1.68-.18.2h-1l-.18-.18a7.34,7.34,0,0,0-.29-2.8c-.13-.17-.78-.3-1.94-.4s-2.18-.14-3.06-.14c-1,0-2.1,0-3.17.13a51,51,0,0,0-.2,5.25V214q1.42.09,2.31.09l2.36,0c1.11,0,1.73-.1,1.88-.27a5.73,5.73,0,0,0,.38-2.43l.18-.18h1.12l.18.18c-.05,1.34-.08,2.58-.08,3.7s0,2.54.08,4l-.18.17h-1.21l-.18-.18a5.8,5.8,0,0,0-.29-2.47c-.19-.26-.78-.43-1.75-.51-.74-.06-1.52-.09-2.35-.09s-1.69,0-2.45.09v5.5c0,1.58,0,3.1.09,4.58h2.45c3.51,0,5.67-.13,6.46-.41a.65.65,0,0,0,.29-.2,3.29,3.29,0,0,0,.34-1.08l.44-2.24.18-.2H196Z" transform="translate(-64.44 -157.95)"/><path class="cls-13" d="M219.15,222.14a39.56,39.56,0,0,0-.4,6l-.18.18-13.12-.11c-2.19,0-3.73,0-4.63.11l-.18-.18v-.51l.09-.21a6.08,6.08,0,0,0,1.44-1.07,9.62,9.62,0,0,0,.2-2.4l0-4v-9.15a41.8,41.8,0,0,0-.23-5.59.8.8,0,0,0-.62-.67,18.61,18.61,0,0,0-2.11-.18l-.18-.18v-1.23l.18-.16c1.24.07,3.06.11,5.45.11s4.36,0,5.65-.11l.18.16v1.25l-.18.16a18.61,18.61,0,0,0-2.11.18.8.8,0,0,0-.62.67,41.8,41.8,0,0,0-.23,5.59v10.79c0,1.58,0,3.1.09,4.58h2.45c3.52,0,5.67-.13,6.46-.41a.6.6,0,0,0,.29-.2,3.06,3.06,0,0,0,.34-1.08l.44-2.24.18-.2H219Z" transform="translate(-64.44 -157.95)"/><path class="cls-14" d="M234,228.1l-.16.18c-1.21-.07-3.07-.11-5.58-.11s-4.35,0-5.56.11l-.16-.18v-1.21l.18-.18c1.23-.08,1.93-.14,2.11-.18a.8.8,0,0,0,.62-.67,41.9,41.9,0,0,0,.23-5.59v-9.55a41.8,41.8,0,0,0-.23-5.59.8.8,0,0,0-.62-.67,18.61,18.61,0,0,0-2.11-.18l-.18-.18v-1.23l.18-.16c1.16.07,3,.11,5.56.11s4.38,0,5.54-.11l.18.16v1.23l-.18.18a18.61,18.61,0,0,0-2.11.18.8.8,0,0,0-.62.67,41.8,41.8,0,0,0-.23,5.59v9.55a41.9,41.9,0,0,0,.23,5.59.8.8,0,0,0,.62.67c.18,0,.88.1,2.11.18l.18.18Z" transform="translate(-64.44 -157.95)"/><path class="cls-15" d="M265.67,204.1l-.2.18a18.61,18.61,0,0,0-2.11.18.79.79,0,0,0-.61.67,39.51,39.51,0,0,0-.24,5.59v7.33q0,8.1.24,10.55l-.24.16c-1.36-.22-2.39-.39-3.08-.48q-4.85-5.43-16.51-19.81v11.8a41.9,41.9,0,0,0,.23,5.59.8.8,0,0,0,.62.67c.18,0,.88.1,2.11.18l.18.18v1.22l-.18.17c-1.39-.07-2.67-.11-3.86-.11-1.39,0-2.78,0-4.17.11l-.18-.17v-1.22l.18-.18c1.23-.08,1.93-.14,2.11-.18a.79.79,0,0,0,.61-.67,39.61,39.61,0,0,0,.24-5.59v-9.55a39.51,39.51,0,0,0-.24-5.59.79.79,0,0,0-.61-.67,18.61,18.61,0,0,0-2.11-.18l-.18-.18v-1.23l.18-.16c1.14.07,2.23.11,3.26.11,1.63,0,3,0,4-.11q6.5,8.65,15.26,18.57V210.72a41.8,41.8,0,0,0-.23-5.59.81.81,0,0,0-.62-.67,18.61,18.61,0,0,0-2.11-.18l-.18-.18v-1.23l.18-.16c1.35.07,2.63.11,3.84.11,1.56,0,2.95,0,4.19-.11l.18.16Z" transform="translate(-64.44 -157.95)"/><path class="cls-16" d="M288.47,222.14a41,41,0,0,0-.39,6l-.19.18-13.11-.11c-2.19,0-3.74,0-4.64.11l-.18-.18v-.51l.09-.21a6.08,6.08,0,0,0,1.44-1.07,9.24,9.24,0,0,0,.2-2.4l.06-4v-9.15a39.51,39.51,0,0,0-.24-5.59.79.79,0,0,0-.61-.67,18.9,18.9,0,0,0-2.11-.18l-.18-.18v-1.23l.18-.16c1.21.07,3.09.11,5.63.11q3.39,0,12.9-.11l.2.15-.24,2c-.07.64-.13,1.18-.16,1.62l-.13,1.68-.18.2h-1l-.18-.18a7.57,7.57,0,0,0-.29-2.8,4.17,4.17,0,0,0-1.94-.4c-1.16-.09-2.18-.14-3.06-.14-1.05,0-2.11,0-3.18.13-.13,1.26-.19,3-.19,5.25V214c.95.06,1.71.09,2.3.09l2.37,0c1.1,0,1.73-.1,1.87-.27a5.56,5.56,0,0,0,.38-2.43l.18-.18h1.12l.18.18c-.05,1.34-.07,2.58-.07,3.7s0,2.54.07,4l-.18.17h-1.21l-.18-.18a5.63,5.63,0,0,0-.29-2.47c-.19-.26-.77-.43-1.75-.51q-1.1-.09-2.34-.09c-.88,0-1.7,0-2.45.09v5.5c0,1.58,0,3.1.09,4.58h2.45a28.06,28.06,0,0,0,6.46-.41.65.65,0,0,0,.29-.2,3.29,3.29,0,0,0,.34-1.08l.43-2.24.18-.2h1.1Z" transform="translate(-64.44 -157.95)"/><path class="cls-17" d="M329.89,228.1l-.18.18c-1.19-.07-3-.11-5.56-.11s-4.43,0-5.56.11l-.18-.17v-1.22l.2-.18c1.23-.08,1.93-.14,2.11-.18a.8.8,0,0,0,.62-.67,41.9,41.9,0,0,0,.23-5.59v-4.35c-.61-.06-2.56-.09-5.84-.09-3,0-5,0-6,.09v4.35a40.18,40.18,0,0,0,.23,5.59.79.79,0,0,0,.61.67c.18,0,.89.1,2.11.18l.18.18v1.21l-.16.18c-1.2-.07-3-.11-5.56-.11s-4.43,0-5.55.11l-.18-.17v-1.22l.18-.18c1.23-.08,1.93-.14,2.11-.18a.79.79,0,0,0,.61-.67,39.61,39.61,0,0,0,.24-5.59v-9.55a39.51,39.51,0,0,0-.24-5.59.79.79,0,0,0-.61-.67,18.61,18.61,0,0,0-2.11-.18l-.18-.18v-1.23l.18-.16c1.15.07,3,.11,5.55.11s4.47,0,5.56-.11l.16.16v1.25l-.18.16a18.9,18.9,0,0,0-2.11.18.79.79,0,0,0-.61.67,40.08,40.08,0,0,0-.23,5.59v3c1.27.06,3,.09,5.26.09,3.52,0,5.7,0,6.57-.09v-3a41.8,41.8,0,0,0-.23-5.59.8.8,0,0,0-.62-.67,18.61,18.61,0,0,0-2.11-.18l-.2-.18v-1.23l.18-.16c1.17.07,3,.11,5.56.11s4.48,0,5.56-.11l.18.16v1.25l-.16.16a18.4,18.4,0,0,0-2.13.18.8.8,0,0,0-.62.67,41.8,41.8,0,0,0-.23,5.59v9.55a41.9,41.9,0,0,0,.23,5.59.8.8,0,0,0,.62.67c.18,0,.88.1,2.11.18l.18.18Z" transform="translate(-64.44 -157.95)"/><path class="cls-18" d="M360.72,214.84c0,4.43-1.29,7.92-3.88,10.44s-5.95,3.68-10.3,3.68q-6.18,0-9.69-3.47t-3.52-9.66q0-8.69,6.62-12a16.41,16.41,0,0,1,7.42-1.51q6.3,0,9.79,3.3T360.72,214.84Zm-5.56.93a14.51,14.51,0,0,0-2.1-8.3,7,7,0,0,0-6.16-3.08c-3.57,0-5.94,1.6-7.11,4.82a16,16,0,0,0-.9,5.53q0,5.58,2.05,8.81a7.06,7.06,0,0,0,6.37,3.34q5.15,0,6.91-5.07A18.16,18.16,0,0,0,355.16,215.77Z" transform="translate(-64.44 -157.95)"/><path class="cls-19" d="M386.91,202.82a19,19,0,0,0-.23,2.76l0,3-.18.18h-1.14l-.19-.16a20.91,20.91,0,0,0-.2-2.71,1.24,1.24,0,0,0-1.16-.84q-.36-.06-3.39-.06H378c0,.42,0,2.1,0,5v10.25a41.9,41.9,0,0,0,.23,5.59.8.8,0,0,0,.61.67c.19,0,.89.1,2.12.18l.18.18v1.21l-.18.18c-1.2-.07-3.05-.11-5.56-.11s-4.43,0-5.56.11l-.16-.17v-1.22l.18-.18c1.23-.08,1.93-.14,2.11-.18a.79.79,0,0,0,.61-.67,39.61,39.61,0,0,0,.24-5.59V210c0-3,0-4.64-.06-5h-2.58a18.56,18.56,0,0,0-3.77.2.75.75,0,0,0-.39.27,3.54,3.54,0,0,0-.27,1.16c-.09.63-.14,1.29-.17,2l-.18.18H364.2l-.2-.18,0-3.08a21.12,21.12,0,0,0-.21-2.69l.16-.18c.71.12,3.29.18,7.76.18H379c4.12,0,6.7-.06,7.76-.18Z" transform="translate(-64.44 -157.95)"/><path class="cls-20" d="M409.26,222.14a41,41,0,0,0-.39,6l-.18.18-13.12-.11c-2.19,0-3.74,0-4.64.11l-.18-.18v-.51l.09-.21a6.08,6.08,0,0,0,1.44-1.07,9.24,9.24,0,0,0,.2-2.4l.06-4v-9.15a39.51,39.51,0,0,0-.24-5.59.79.79,0,0,0-.61-.67,18.61,18.61,0,0,0-2.11-.18l-.18-.18v-1.23l.18-.16c1.21.07,3.09.11,5.63.11q3.39,0,12.9-.11l.2.15-.24,2c-.07.64-.12,1.18-.16,1.62l-.13,1.68-.18.2h-1l-.18-.18a7.57,7.57,0,0,0-.29-2.8,4.17,4.17,0,0,0-1.94-.4c-1.16-.09-2.18-.14-3.06-.14-1,0-2.11,0-3.18.13-.13,1.26-.19,3-.19,5.25V214q1.42.09,2.31.09l2.36,0c1.11,0,1.73-.1,1.88-.27a5.8,5.8,0,0,0,.37-2.43l.18-.18h1.12l.18.18c0,1.34-.07,2.58-.07,3.7s0,2.54.07,4l-.18.17h-1.21l-.18-.18a5.87,5.87,0,0,0-.28-2.47c-.2-.26-.78-.43-1.76-.51q-1.1-.09-2.34-.09c-.88,0-1.7,0-2.45.09v5.5c0,1.58,0,3.1.09,4.58h2.45a28.06,28.06,0,0,0,6.46-.41.65.65,0,0,0,.29-.2,3.29,3.29,0,0,0,.34-1.08l.43-2.24.18-.2h1.1Z" transform="translate(-64.44 -157.95)"/><path class="cls-21" d="M432.24,222.14a41,41,0,0,0-.39,6l-.18.18-13.12-.11c-2.19,0-3.73,0-4.64.11l-.18-.18v-.51l.09-.21a6.54,6.54,0,0,0,1.45-1.07,9.62,9.62,0,0,0,.2-2.4l0-4v-9.15a41.8,41.8,0,0,0-.23-5.59.81.81,0,0,0-.62-.67,18.61,18.61,0,0,0-2.11-.18l-.18-.18v-1.23l.18-.16c1.24.07,3.06.11,5.45.11s4.36,0,5.65-.11l.18.16v1.25l-.18.16a18.61,18.61,0,0,0-2.11.18.8.8,0,0,0-.62.67,41.8,41.8,0,0,0-.23,5.59v10.79c0,1.58,0,3.1.09,4.58h2.45c3.51,0,5.67-.13,6.46-.41a.65.65,0,0,0,.29-.2,3.29,3.29,0,0,0,.34-1.08l.44-2.24.18-.2h1.1Z" transform="translate(-64.44 -157.95)"/></svg>